# xmcd CD database file
#
# Track frame offsets:
#	151
#	16608
#	35013
#	52051
#	71966
#	90437
#	112865
#	135999
#	159312
#	179281
#	193930
#	217975
#	241754
#	259709
#	284026
#
# Disc length: 4070 seconds
#
# Revision: 0
# Processed by: cddbd v1.5.2PL0 Copyright (c) Steve Scherf et al.
# Submitted via: CDex 1.50beta10
#
DISCID=ce0fe40f
DTITLE=Best Of Jazz 9 (傳奇爵士經典2) - 就是爵士9
DYEAR=1900
DGENRE=Jazz
TTITLE0=CHEGA DE SAUDADE
TTITLE1=CORCOVADO
TTITLE2=MARIA E DIA
TTITLE3=PALPITE INFELIZ
TTITLE4=LOVE YOU MADLY
TTITLE5=PRELUDE TO A KISS
TTITLE6=I DON'T KNOW ATOUT YOU
TTITLE7=FOR ALL WE KNOW
TTITLE8=SISTER MOON
TTITLE9=(YOU)KEEP ME IN LOIVE
TTITLE10=WILL YOU STILL LOVE ME TOMORROW
TTITLE11=FRAGILE
TTITLE12=THE VERY THOUGHT OF YOU
TTITLE13=SO MANY STARS
TTITLE14=THE FOOL ON THE HILL
EXTD=
EXTT0=
EXTT1=
EXTT2=
EXTT3=
EXTT4=
EXTT5=
EXTT6=
EXTT7=
EXTT8=
EXTT9=
EXTT10=
EXTT11=
EXTT12=
EXTT13=
EXTT14=
PLAYORDER=
